<svg xmlns="http://www.w3.org/2000/svg" viewBox="0 0 30 30">
  <defs/>
  <path fill="#fddf6d" d="M29.449219 15c0 7.960938-6.453125 14.414062-14.414063 14.414062C7.074219 29.414062.621094 22.960938.621094 15S7.074219.585938 15.035156.585938C22.996094.585938 29.449219 7.039062 29.449219 15zm0 0"/>
  <path fill="#fcc56b" d="M18.125 27.285156c-7.960938 0-14.414062-6.453125-14.414062-14.414062 0-4.25 1.839843-8.074219 4.769531-10.710938C3.816406 4.542969.621094 9.398438.621094 15c0 7.960938 6.453125 14.414062 14.414062 14.414062 3.707032 0 7.085938-1.402343 9.640625-3.699218-1.964843 1.003906-4.191406 1.570312-6.550781 1.570312zm0 0"/>
  <path fill="#7f184c" d="M24.4375 13.496094c-.207031 0-.40625-.105469-.511719-.300782-.378906-.675781-1.089843-1.09375-1.863281-1.09375-.753906 0-1.476562.425782-1.886719 1.109376-.167969.28125-.527343.371093-.804687.203124-.277344-.167968-.367188-.527343-.199219-.804687.621094-1.035156 1.726563-1.679687 2.890625-1.679687 1.199219 0 2.304688.648437 2.886719 1.695312.15625.285156.054687.640625-.226563.796875-.089844.050781-.1875.074219-.285156.074219zm0 0M14.433594 13.496094c-.207032 0-.40625-.105469-.511719-.300782-.378906-.675781-1.089844-1.09375-1.863281-1.09375-.753906 0-1.476563.425782-1.886719 1.109376-.167969.28125-.527344.371093-.804687.203124-.277344-.167968-.367188-.527343-.199219-.804687.621093-1.035156 1.726562-1.679687 2.890625-1.679687 1.199218 0 2.304687.648437 2.886718 1.695312.15625.285156.054688.640625-.226562.796875-.089844.050781-.1875.074219-.285156.074219zm0 0M17.199219 25.648438c-4.160157 0-7.53125-3.375-7.53125-7.53125h15.0625c0 4.15625-3.371094 7.53125-7.53125 7.53125zm0 0"/>
  <path fill="#f2f2f2" d="M11.507812 18.117188v1.175781c0 .496093.402344.894531.894532.894531h9.59375c.496094 0 .898437-.398438.898437-.894531v-1.175781zm0 0"/>
  <path fill="#fc4c59" d="M17.359375 22.523438c-2.035156-.945313-4.296875-.808594-6.128906.171874 1.378906 1.792969 3.542969 2.953126 5.976562 2.953126 1.074219 0 2.09375-.226563 3.019531-.632813-.679687-1.046875-1.648437-1.925781-2.867187-2.492187zm0 0"/>
  <path fill="#3fa9f5" d="M8.855469 19.660156c-.878907.964844-2.375 1.03125-3.335938.148438-.960937-.878906-1.03125-2.371094-.148437-3.335938.878906-.960937 4.914062-1.875 4.914062-1.875s-.550781 4.101563-1.429687 5.0625zm0 0M25.058594 19.132812c.878906.964844 2.375 1.03125 3.335937.152344.960938-.882812 1.027344-2.375.148438-3.335937-.878907-.964844-4.917969-1.878907-4.917969-1.878907s.554688 4.101563 1.433594 5.0625zm0 0"/>
  <path d="M22.0625 10.929688c-1.164062 0-2.269531.644531-2.890625 1.679687-.167969.277344-.078125.636719.199219.804687.277344.167969.636718.078126.804687-.199218.410157-.6875 1.132813-1.113282 1.886719-1.113282.773438 0 1.484375.421876 1.863281 1.09375.105469.195313.304688.304688.511719.304688.097656 0 .195312-.027344.285156-.074219.28125-.160156.382813-.515625.226563-.800781-.582031-1.046875-1.6875-1.695312-2.886719-1.695312zm0 0M12.058594 10.929688c-1.164063 0-2.269532.644531-2.890625 1.679687-.167969.277344-.078125.636719.199219.804687.277343.167969.636718.078126.804687-.199218.410156-.6875 1.132813-1.113282 1.886719-1.113282.773437 0 1.484375.421876 1.863281 1.09375.105469.195313.304687.304688.511719.304688.097656 0 .195312-.027344.285156-.074219.28125-.160156.382812-.515625.226562-.800781-.582031-1.046875-1.6875-1.695312-2.886718-1.695312zm0 0"/>
  <path d="M28.976562 15.554688c-.957031-1.046876-4.515624-1.898438-5.21875-2.058594-.1875-.039063-.386718.011718-.527343.140625-.140625.128906-.210938.320312-.183594.511719.058594.445312.285156 2.007812.675781 3.382812H10.328125c.308594-1.226562.488281-2.46875.539063-2.855469.027343-.191406-.042969-.382812-.183594-.511719-.144532-.128906-.339844-.183593-.527344-.140624-.703125.160156-4.265625 1.011718-5.21875 2.054687-1.097656 1.199219-1.011719 3.066406.1875 4.164063.546875.5 1.246094.773437 1.984375.773437.042969 0 .089844 0 .132813-.003906.789062-.035157 1.515624-.375 2.046874-.957031.007813-.007813.015626-.015626.023438-.027344.859375 3.558594 4.070312 6.207031 7.886719 6.207031 3.824219 0 7.070312-2.667969 7.90625-6.28125.507812.355469 1.101562.535156 1.695312.535156.339844 0 .679688-.058593 1-.175781-.886719 2.128906-2.308593 4.027344-4.125 5.484375-2.476562 1.984375-5.464843 3.03125-8.640625 3.03125-7.625 0-13.828125-6.203125-13.828125-13.828125S7.410156 1.171875 15.035156 1.171875c6.289063 0 11.792969 4.246094 13.378906 10.324219.082032.3125.402344.503906.714844.421875.316406-.082031.503906-.402344.421875-.71875C27.828125 4.605469 21.859375 0 15.035156 0 6.765625 0 .0351562 6.730469.0351562 15S6.765625 30 15.035156 30c3.398438 0 6.726563-1.167969 9.371094-3.289062 2.605469-2.085938 4.464844-5.015626 5.226562-8.246094.011719-.058594.019532-.113282.015626-.167969.246093-.9375.027343-1.976563-.671876-2.742187zM7.191406 19.839844c-.472656.023437-.925781-.144532-1.277344-.460938-.722656-.660156-.773437-1.785156-.113281-2.507812.4375-.476563 2.253907-1.09375 3.773438-1.496094-.265625 1.550781-.714844 3.414062-1.152344 3.890625-.320313.347656-.757813.554687-1.230469.574219zm10.007813 5.21875c-3.632813 0-6.621094-2.800782-6.917969-6.355469h13.839844c-.300782 3.578125-3.308594 6.355469-6.921875 6.355469zm9.523437-5.746094c-.472656-.019531-.910156-.222656-1.230468-.574219-.078126-.082031-.152344-.207031-.226563-.363281-.011719-.027344-.023437-.054688-.039063-.082031-.046874-.105469-.09375-.21875-.140624-.347657-.003907-.011718-.007813-.023437-.011719-.039062-.289063-.808594-.554688-2.003906-.734375-3.058594 1.519531.402344 3.335937 1.019532 3.769531 1.496094.660156.722656.609375 1.847656-.109375 2.507812-.351562.320313-.804688.484376-1.277344.460938zm0 0"/>
  <path d="M29.964844 13.242188c0 .324218-.261719.589843-.585938.589843-.324218 0-.585937-.265625-.585937-.589843 0-.320313.261719-.585938.585937-.585938.324219 0 .585938.265625.585938.585938zm0 0"/>
</svg>
