<svg xmlns="http://www.w3.org/2000/svg" viewBox="0 0 30 30">
  <defs/>
  <path fill="#fddf6d" d="M29.414062 15c0 7.960938-6.453124 14.414062-14.414062 14.414062S.585938 22.960938.585938 15 7.039062.585938 15 .585938 29.414062 7.039062 29.414062 15zm0 0"/>
  <path fill="#fcc56b" d="M18.089844 27.285156c-7.960938 0-14.414063-6.453125-14.414063-14.414062 0-4.25 1.839844-8.074219 4.773438-10.710938C3.78125 4.542969.585938 9.398438.585938 15c0 7.960938 6.453124 14.414062 14.414062 14.414062 3.707031 0 7.085938-1.402343 9.640625-3.699218-1.964844 1.003906-4.191406 1.570312-6.550781 1.570312zm0 0"/>
  <path fill="#fff" d="M16.671875 10.539062c0 2.308594-1.871094 4.179688-4.183594 4.179688-2.308593 0-4.179687-1.871094-4.179687-4.179688 0-2.308593 1.871094-4.183593 4.179687-4.183593 2.3125 0 4.183594 1.875 4.183594 4.183593zm0 0M28.398438 10.539062c0 2.308594-1.875 4.179688-4.183594 4.179688-2.308594 0-4.179688-1.871094-4.179688-4.179688 0-2.308593 1.871094-4.183593 4.179688-4.183593 2.308594 0 4.183594 1.875 4.183594 4.183593zm0 0"/>
  <path fill="#f9a880" d="M8.804688 16.304688c-1.070313 0-1.9375.867187-1.9375 1.9375h3.878906c-.003906-1.070313-.871094-1.9375-1.941406-1.9375zm0 0M25.710938 16.046875c-1.070313 0-1.9375.867187-1.9375 1.9375h3.875c0-1.070313-.867188-1.9375-1.9375-1.9375zm0 0"/>
  <path fill="#7f184c" d="M12.613281 8.351562c0 .648438-.523437 1.171876-1.171875 1.171876-.648437 0-1.171875-.523438-1.171875-1.171876 0-.648437.523438-1.171874 1.171875-1.171874.648438 0 1.171875.523437 1.171875 1.171874zm0 0M24.511719 8.269531c0 .648438-.527344 1.175781-1.171875 1.175781-.648438 0-1.175782-.527343-1.175782-1.175781 0-.644531.527344-1.171875 1.175782-1.171875.644531 0 1.171875.527344 1.171875 1.171875zm0 0M16.210938 24.089844c-.101563 0-.203126-.027344-.300782-.082032-.277344-.167968-.367187-.527343-.199218-.804687.808593-1.347656 2.246093-2.1875 3.757812-2.1875.457031 0 .90625.074219 1.335938.214844.308593.101562.476562.429687.375.738281-.101563.308594-.433594.476562-.738282.375-.3125-.101562-.640625-.15625-.972656-.15625-1.101562 0-2.15625.621094-2.753906 1.617188-.109375.183593-.304688.285156-.503906.285156zm0 0"/>
  <path d="M28.609375 8.691406c-.0625-.148437-.132813-.292968-.207031-.433594-.027344-.054687-.054688-.105468-.082032-.160156-.023437-.050781-.058593-.09375-.09375-.132812-.851562-1.320313-2.332031-2.195313-4.011718-2.195313-2.628906 0-4.765625 2.140625-4.765625 4.769531 0 2.628907 2.136719 4.765626 4.765625 4.765626 1.957031 0 3.640625-1.183594 4.375-2.875.15625.839843.238281 1.695312.238281 2.570312 0 7.625-6.203125 13.828125-13.828125 13.828125S1.171875 22.625 1.171875 15 7.375 1.171875 15 1.171875c2.144531 0 4.203125.480469 6.109375 1.421875.292969.140625.644531.023438.785156-.265625.144531-.292969.027344-.644531-.265625-.785156C19.558594.519531 17.328125 0 15 0 6.730469 0 0 6.730469 0 15s6.730469 15 15 15 15-6.730469 15-15c0-2.179688-.480469-4.34375-1.390625-6.308594zm-.800781 1.847656c0 1.980469-1.609375 3.59375-3.59375 3.59375-1.980469 0-3.59375-1.613281-3.59375-3.59375 0-1.984374 1.613281-3.59375 3.59375-3.59375 1.355468 0 2.539062.753907 3.148437 1.863282.058594.113281.113281.222656.167969.335937.179688.429688.277344.902344.277344 1.394531zm0 0"/>
  <path d="M12.488281 5.769531c-2.628906 0-4.765625 2.140625-4.765625 4.769531 0 2.628907 2.136719 4.765626 4.765625 4.765626 2.628907 0 4.769531-2.136719 4.769531-4.765626 0-2.628906-2.140624-4.769531-4.769531-4.769531zm0 8.363281c-1.980469 0-3.59375-1.613281-3.59375-3.59375 0-1.984374 1.613281-3.59375 3.59375-3.59375 1.984375 0 3.597657 1.609376 3.597657 3.59375 0 1.980469-1.613282 3.59375-3.597657 3.59375zm0 0M15.910156 24.007812c.097656.054688.199219.082032.300782.082032.199218 0 .394531-.101563.503906-.285156.597656-.996094 1.652344-1.617188 2.753906-1.617188.332031 0 .660156.054688.972656.15625.304688.101562.636719-.066406.738282-.375.101562-.308594-.066407-.636719-.375-.738281-.429688-.140625-.878907-.214844-1.335938-.214844-1.511719 0-2.949219.839844-3.757812 2.1875-.167969.277344-.078126.636719.199218.804687zm0 0M23.769531 3.128906c0 .324219-.265625.585938-.585937.585938-.324219 0-.589844-.261719-.589844-.585938 0-.324218.265625-.585937.589844-.585937.320312 0 .585937.261719.585937.585937zm0 0"/>
</svg>
