<svg xmlns="http://www.w3.org/2000/svg" viewBox="0 0 30 30">
  <defs/>
  <path fill="#fddf6d" d="M29.414062 15c0 7.960938-6.453124 14.414062-14.414062 14.414062S.585938 22.960938.585938 15 7.039062.585938 15 .585938 29.414062 7.039062 29.414062 15zm0 0"/>
  <path fill="#fcc56b" d="M18.089844 27.285156c-7.960938 0-14.414063-6.453125-14.414063-14.414062 0-4.25 1.839844-8.074219 4.769531-10.710938C3.78125 4.542969.585938 9.398438.585938 15c0 7.960938 6.453124 14.414062 14.414062 14.414062 3.707031 0 7.085938-1.402343 9.640625-3.699218-1.964844 1.003906-4.191406 1.570312-6.550781 1.570312zm0 0"/>
  <path fill="#fff" d="M15.746094 10.539062c0 1.796876-1.457032 3.253907-3.257813 3.253907-1.796875 0-3.253906-1.457031-3.253906-3.253907 0-1.800781 1.457031-3.257812 3.253906-3.257812 1.800781 0 3.257813 1.457031 3.257813 3.257812zm0 0M28.398438 10.539062c0 2.308594-1.875 4.179688-4.183594 4.179688-2.308594 0-4.179688-1.871094-4.179688-4.179688 0-2.308593 1.871094-4.183593 4.179688-4.183593 2.308594 0 4.183594 1.875 4.183594 4.183593zm0 0"/>
  <path fill="#7f184c" d="M14.210938 10.539062c0 .648438-.527344 1.171876-1.171876 1.171876-.648437 0-1.175781-.523438-1.175781-1.171876 0-.648437.527344-1.171874 1.175781-1.171874.644532 0 1.171876.523437 1.171876 1.171874zm0 0M26.265625 10.539062c0 .648438-.527344 1.171876-1.171875 1.171876-.648438 0-1.175781-.523438-1.175781-1.171876 0-.648437.527343-1.171874 1.175781-1.171874.644531 0 1.171875.523437 1.171875 1.171874zm0 0M18.230469 18.667969c2.472656 0 4.472656 2.003906 4.472656 4.472656v1.363281h-8.945313v-1.363281c0-2.46875 2.003907-4.472656 4.472657-4.472656zm0 0"/>
  <path fill="#f2f2f2" d="M15.546875 20.273438h5.695313c.117187 0 .222656-.046876.308593-.128907-.816406-.90625-2.003906-1.476562-3.320312-1.476562-1.222657 0-2.328125.492187-3.136719 1.285156.097656.191406.261719.320313.453125.320313zm0 0"/>
  <path fill="#fc4c59" d="M17.589844 22.851562c-1.214844-.734374-2.515625-.917968-3.738282-.625-.0625.296876-.09375.601563-.09375.914063v1.363281h5.632813c-.503906-.667968-1.109375-1.230468-1.800781-1.652344zm0 0"/>
  <path d="M28.574219 8.613281c-.046875-.105469-.195313-.394531-.207031-.414062-.820313-1.449219-2.375-2.429688-4.152344-2.429688-2.628906 0-4.765625 2.140625-4.765625 4.769531 0 2.628907 2.136719 4.765626 4.765625 4.765626 1.957031 0 3.640625-1.183594 4.375-2.875.15625.839843.238281 1.699218.238281 2.570312 0 7.625-6.203125 13.828125-13.828125 13.828125S1.171875 22.625 1.171875 15 7.375 1.171875 15 1.171875c2.40625 0 4.777344.628906 6.851562 1.816406.28125.160157.640626.0625.800782-.21875.160156-.28125.0625-.640625-.21875-.800781C20.179688.679688 17.609375 0 15 0 6.730469 0 0 6.730469 0 15s6.730469 15 15 15 15-6.730469 15-15c0-2.238281-.480469-4.386719-1.425781-6.386719zm-.765625 1.925781c0 1.980469-1.609375 3.59375-3.59375 3.59375-1.980469 0-3.59375-1.613281-3.59375-3.59375 0-1.984374 1.613281-3.59375 3.59375-3.59375 1.363281 0 2.550781.757813 3.160156 1.878907.046875.097656.097656.195312.140625.292969.191406.4375.292969.917968.292969 1.421874zm0 0"/>
  <path d="M16.332031 10.539062c0-2.121093-1.722656-3.84375-3.84375-3.84375-2.117187 0-3.839843 1.722657-3.839843 3.84375 0 2.117188 1.722656 3.84375 3.839843 3.84375 2.121094 0 3.84375-1.726562 3.84375-3.84375zm-3.84375 2.667969c-1.46875 0-2.667969-1.195312-2.667969-2.667969 0-1.472656 1.199219-2.671874 2.667969-2.671874 1.472657 0 2.671875 1.199218 2.671875 2.671874 0 1.472657-1.199218 2.667969-2.671875 2.667969zm0 0M13.757812 25.089844h8.945313c.324219 0 .585937-.261719.585937-.585938v-1.363281c0-2.789063-2.269531-5.058594-5.058593-5.058594-2.789063 0-5.058594 2.269531-5.058594 5.058594v1.363281c0 .324219.261719.585938.585937.585938zm.585938-1.949219c0-2.140625 1.742188-3.886719 3.886719-3.886719 2.144531 0 3.886719 1.746094 3.886719 3.886719v.777344H14.34375zm0 0M24.503906 3.667969c0 .324219-.261718.585937-.585937.585937-.324219 0-.585938-.261718-.585938-.585937 0-.324219.261719-.585938.585938-.585938s.585937.261719.585937.585938zm0 0"/>
  <path fill="#f9a880" d="M8.804688 16.304688c-1.070313 0-1.9375.867187-1.9375 1.9375h3.878906c-.003906-1.070313-.871094-1.9375-1.941406-1.9375zm0 0M25.710938 16.304688c-1.070313 0-1.9375.867187-1.9375 1.9375h3.875c0-1.070313-.867188-1.9375-1.9375-1.9375zm0 0"/>
</svg>
