<svg xmlns="http://www.w3.org/2000/svg" viewBox="0 0 30 30">
  <defs/>
  <path fill="#fc4c59" d="M29.414062 15c0 7.960938-6.453124 14.414062-14.414062 14.414062S.585938 22.960938.585938 15 7.039062.585938 15 .585938 29.414062 7.039062 29.414062 15zm0 0"/>
  <path fill="#bc3b4a" d="M18.089844 27.285156c-7.960938 0-14.414063-6.453125-14.414063-14.414062 0-4.25 1.839844-8.074219 4.773438-10.710938C3.78125 4.542969.585938 9.398438.585938 15c0 7.960938 6.453124 14.414062 14.414062 14.414062 3.707031 0 7.085938-1.402343 9.640625-3.699218-1.964844 1.003906-4.191406 1.570312-6.550781 1.570312zm0 0"/>
  <path fill="#7c152e" d="M23.527344 23.796875c-.203125 0-.402344-.109375-.511719-.300781-.714844-1.289063-2.074219-2.085938-3.546875-2.085938-1.429688 0-2.804688.804688-3.582031 2.101563-.167969.277343-.527344.367187-.804688.199219-.277343-.164063-.367187-.527344-.199219-.804688.988282-1.644531 2.746094-2.671875 4.585938-2.671875 1.898438 0 3.648438 1.03125 4.570312 2.691406.160157.28125.058594.636719-.226562.796875-.089844.050782-.1875.074219-.285156.074219zm0 0"/>
  <path fill="#fff" d="M16.570312 14.683594c0 .882812-.71875 1.597656-1.601562 1.597656-.882812 0-1.597656-.714844-1.597656-1.597656 0-.886719.714844-1.601563 1.597656-1.601563.882812 0 1.601562.714844 1.601562 1.601563zm0 0M25.128906 14.25c0 .882812-.71875 1.597656-1.601562 1.597656-.882813 0-1.597656-.714844-1.597656-1.597656 0-.882812.714843-1.601562 1.597656-1.601562.882812 0 1.601562.71875 1.601562 1.601562zm0 0"/>
  <path fill="#7c152e" d="M14.996094 16.867188c-.265625 0-.53125-.046876-.789063-.140626-.566406-.210937-1.015625-.632812-1.269531-1.179687-.253906-.554687-.257812-1.21875-.011719-1.820313.132813-.328124.335938-.621093.585938-.859374-.105469-.050782-.210938-.105469-.320313-.164063-.402344-.207031-.722656-.398437-1.035156-.582031-.367188-.214844-.746094-.441406-1.289062-.714844-.289063-.144531-.402344-.5-.257813-.789062.148437-.289063.5-.402344.789063-.257813.574218.292969.972656.527344 1.355468.753906.3125.183594.605469.355469.976563.550781.25.128907.496093.253907.726562.371094 1 .511719 1.859375.949219 2.433594 1.417969.070313.054687.128906.128906.164063.210937.25.550782.273437 1.164063.0625 1.730469-.210938.566407-.628907 1.015625-1.179688 1.269531-.300781.136719-.621094.203126-.941406.203126zm-.300782-3.390626c-.308593.125-.550781.367188-.683593.691407-.125.304687-.125.628906-.007813.890625.121094.265625.339844.464844.613282.566406.273437.101562.566406.09375.832031-.027344.265625-.121094.46875-.339844.570312-.613281.085938-.230469.089844-.480469.015625-.710937-.335937-.25-.800781-.511719-1.339844-.796876zm0 0M23.605469 16.46875c-.320313 0-.640625-.066406-.941407-.207031-.546874-.25-.96875-.699219-1.179687-1.265625-.210937-.566406-.1875-1.183594.0625-1.730469.042969-.09375.105469-.171875.1875-.230469.613281-.453125 1.429687-.925781 2.417969-1.40625 1.484375-.71875 1.582031-.773437 2.789062-1.484375l.183594-.105469c.277344-.164062.636719-.070312.800781.207032.164063.28125.070313.640625-.207031.804687l-.183594.105469c-1.070312.628906-1.300781.761719-2.375 1.285156.214844.207032.386719.449219.511719.726563.277344.621093.273437 1.363281-.007813 1.976562-.25.550781-.703124.96875-1.269531 1.179688-.253906.097656-.523437.144531-.789062.144531zM22.5625 13.882812c-.070312.230469-.0625.472657.023438.703126.101562.273437.300781.488281.566406.609374.265625.121094.5625.132813.835937.03125.269531-.101562.488281-.304687.609375-.566406.140625-.3125.140625-.699218 0-1.015625-.085937-.199219-.265625-.453125-.640625-.601562-.542969.285156-1.007812.566406-1.394531.839843zm0 0"/>
  <path d="M27.566406 6.804688c-1.550781-2.375-3.730468-4.253907-6.300781-5.4375-.292969-.136719-.640625-.007813-.777344.289062-.136719.292969-.007812.640625.289063.777344 2.367187 1.089844 4.375 2.824218 5.808594 5.011718C28.050781 9.691406 28.828125 12.304688 28.828125 15c0 7.625-6.203125 13.828125-13.828125 13.828125S1.171875 22.625 1.171875 15 7.375 1.171875 15 1.171875c.324219 0 .585938-.261719.585938-.585937C15.585938.261719 15.324219 0 15 0 6.730469 0 0 6.730469 0 15s6.730469 15 15 15 15-6.730469 15-15c0-2.921875-.839844-5.757812-2.433594-8.195312zm0 0"/>
  <path d="M14.882812 22.90625c-.167968.28125-.078124.640625.199219.804688.277344.167968.636719.078124.804688-.199219.777343-1.296875 2.152343-2.101563 3.582031-2.101563 1.472656 0 2.832031.796875 3.546875 2.085938.109375.191406.308594.300781.511719.300781.097656 0 .195312-.023437.285156-.074219.285156-.160156.386719-.515625.226562-.796875-.921874-1.660156-2.671874-2.6875-4.570312-2.6875-1.839844 0-3.597656 1.023438-4.585938 2.667969zm0 0M13.730469 11.664062c-.371094-.195312-.664063-.367187-.976563-.550781-.382812-.226562-.78125-.460937-1.355468-.753906-.289063-.144531-.640626-.03125-.789063.257813-.144531.289062-.03125.644531.257813.789062.542968.273438.921874.5 1.289062.714844.3125.183594.636719.375 1.035156.582031.109375.058594.214844.113281.320313.164063-.25.238281-.453125.53125-.585938.859374-.246093.601563-.242187 1.265626.011719 1.820313.253906.546875.703125.96875 1.269531 1.179687.257813.09375.523438.140626.789063.140626.320312 0 .640625-.066407.941406-.203126.550781-.253906.96875-.703124 1.179688-1.269531.210937-.566406.1875-1.179687-.0625-1.730469-.039063-.082031-.09375-.15625-.164063-.210937-.574219-.46875-1.433594-.90625-2.433594-1.417969-.230469-.117187-.476562-.242187-.726562-.371094zm2.304687 2.609376c.074219.230468.070313.480468-.015625.710937-.101562.273437-.304687.492187-.570312.613281-.265625.121094-.558594.128906-.832031.027344-.273438-.101562-.492188-.300781-.613282-.566406-.117187-.261719-.117187-.585938.007813-.890625.132812-.324219.375-.566407.683593-.691407.539063.285157 1.003907.546876 1.339844.796876zm0 0M27.71875 11.050781c.277344-.164062.371094-.523437.207031-.800781-.164062-.28125-.523437-.375-.800781-.210938l-.183594.105469c-1.207031.710938-1.304687.769531-2.789062 1.484375-.988282.480469-1.804688.953125-2.417969 1.40625-.082031.058594-.144531.140625-.1875.230469-.25.546875-.273437 1.164063-.0625 1.730469.210937.566406.632813 1.015625 1.179687 1.265625.300782.140625.621094.207031.941407.207031.265625 0 .535156-.046875.789062-.140625.566407-.214844 1.019531-.632813 1.269531-1.183594.28125-.613281.285157-1.355469.007813-1.976562-.125-.277344-.296875-.519531-.511719-.726563 1.074219-.523437 1.304688-.65625 2.375-1.285156zm-3.121094 3.609375c-.121094.261719-.339844.464844-.609375.566406-.273437.101563-.570312.089844-.835937-.03125-.265625-.121093-.464844-.335937-.566406-.609374-.085938-.230469-.09375-.472657-.019532-.703126.382813-.273437.847656-.554687 1.390625-.839843.375.148437.554688.402343.644531.601562.140626.316407.136719.703125-.003906 1.015625zm0 0M19.519531 1.171875c0 .324219-.261719.585937-.585937.585937-.324219 0-.585938-.261718-.585938-.585937 0-.324219.261719-.585937.585938-.585937.324218 0 .585937.261718.585937.585937zm0 0"/>
</svg>
