<svg xmlns="http://www.w3.org/2000/svg" viewBox="0 0 30 30">
  <defs/>
  <path fill="#fddf6d" d="M29.414062 15c0 7.960938-6.453124 14.414062-14.414062 14.414062S.585938 22.960938.585938 15 7.039062.585938 15 .585938 29.414062 7.039062 29.414062 15zm0 0"/>
  <path fill="#fcc56b" d="M18.089844 27.285156c-7.960938 0-14.414063-6.453125-14.414063-14.414062 0-4.25 1.839844-8.074219 4.769531-10.710938C3.78125 4.542969.585938 9.398438.585938 15c0 7.960938 6.453124 14.414062 14.414062 14.414062 3.707031 0 7.085938-1.402343 9.640625-3.699218-1.964844 1.003906-4.191406 1.570312-6.550781 1.570312zm0 0"/>
  <path fill="#7f184c" d="M21.558594 24.449219h-7c-.324219 0-.585938-.265625-.585938-.589844 0-.320313.261719-.585937.585938-.585937h7c.324218 0 .585937.265624.585937.585937 0 .324219-.261719.589844-.585937.589844zm0 0M12.953125 18.414062c-1.425781 0-2.714844-.367187-3.445313-.976562-.25-.207031-.28125-.578125-.074218-.828125.207031-.246094.578125-.28125.824218-.074219.511719.429688 1.570313.707032 2.695313.707032 1.097656 0 2.171875-.285157 2.734375-.71875.253906-.199219.621094-.152344.820312.105468.199219.253906.152344.621094-.101562.820313-.777344.605469-2.070312.964843-3.453125.964843zm0 0M23.125 18.414062c-1.425781 0-2.714844-.367187-3.445312-.976562-.25-.207031-.28125-.578125-.074219-.828125.207031-.246094.578125-.28125.824219-.074219.511718.429688 1.570312.707032 2.695312.707032 1.097656 0 2.171875-.285157 2.730469-.71875.257812-.199219.625-.152344.824219.105468.199218.253906.152343.621094-.105469.820313-.777344.605469-2.066407.964843-3.449219.964843zm0 0M10.175781 15.414062c-.214843 0-.417969-.027343-.601562-.074218-.3125-.089844-.492188-.410156-.40625-.722656.085937-.3125.410156-.496094.71875-.410157.289062.082031.882812.023438 1.554687-.28125.660156-.296875 1.105469-.722656 1.257813-1.007812.152343-.285157.507812-.394531.792969-.246094.285156.152344.394531.507813.246093.792969-.308593.582031-.984375 1.15625-1.8125 1.53125-.601562.273437-1.21875.417968-1.75.417968zm0 0M25.75 15.414062c-.527344 0-1.144531-.144531-1.75-.417968-.824219-.375-1.5-.949219-1.808594-1.53125-.152344-.285156-.039062-.640625.246094-.792969.285156-.148437.640625-.039063.792969.246094.148437.285156.597656.710937 1.253906 1.007812.675781.304688 1.265625.363281 1.554687.28125.3125-.085937.636719.097657.722657.410157.085937.3125-.097657.632812-.410157.722656-.179687.046875-.382812.074218-.601562.074218zm0 0"/>
  <path d="M20.832031 1.175781c-.296875-.125-.640625.015625-.765625.3125-.128906.296875.011719.644531.3125.769531C25.511719 4.425781 28.828125 9.429688 28.828125 15c0 7.625-6.203125 13.828125-13.828125 13.828125S1.171875 22.625 1.171875 15 7.375 1.171875 15 1.171875c.324219 0 .585938-.261719.585938-.585937C15.585938.261719 15.324219 0 15 0 6.730469 0 0 6.730469 0 15s6.730469 15 15 15 15-6.730469 15-15c0-6.042969-3.597656-11.46875-9.167969-13.824219zm0 0"/>
  <path d="M14.558594 23.273438c-.324219 0-.585938.265624-.585938.585937 0 .324219.261719.589844.585938.589844h7c.324218 0 .585937-.265625.585937-.589844 0-.320313-.261719-.585937-.585937-.585937zm0 0M10.257812 16.535156c-.246093-.207031-.617187-.171875-.824218.074219-.207032.25-.175782.621094.074218.828125.730469.609375 2.019532.976562 3.445313.976562 1.382813 0 2.675781-.359374 3.453125-.964843.253906-.199219.300781-.566407.101562-.820313-.199218-.257812-.566406-.304687-.820312-.105468-.5625.4375-1.636719.71875-2.734375.71875-1.125 0-2.183594-.277344-2.695313-.707032zm0 0M19.679688 17.4375c.730468.609375 2.019531.976562 3.445312.976562 1.382812 0 2.671875-.359374 3.449219-.964843.257812-.199219.304687-.566407.105469-.820313-.199219-.257812-.566407-.304687-.824219-.105468-.558594.4375-1.632813.71875-2.730469.71875-1.125 0-2.183594-.277344-2.695312-.707032-.246094-.207031-.617188-.171875-.824219.074219-.207031.25-.175781.621094.074219.828125zm0 0M10.175781 15.414062c.53125 0 1.148438-.144531 1.75-.417968.828125-.375 1.503907-.949219 1.8125-1.53125.148438-.285156.039063-.640625-.246093-.792969-.289063-.148437-.640626-.039063-.792969.246094-.152344.285156-.597657.710937-1.257813 1.007812-.671875.304688-1.265625.363281-1.554687.28125-.308594-.085937-.632813.097657-.71875.410157-.085938.3125.09375.632812.40625.722656.183593.046875.386719.074218.601562.074218zm0 0M24 14.996094c.605469.273437 1.222656.417968 1.75.417968.21875 0 .421875-.027343.601562-.074218.3125-.089844.496094-.410156.410157-.722656-.085938-.3125-.410157-.496094-.722657-.410157-.289062.082031-.878906.023438-1.554687-.28125-.65625-.296875-1.105469-.722656-1.253906-1.007812-.152344-.285157-.507813-.394531-.792969-.246094-.285156.152344-.398438.507813-.246094.792969.308594.582031.984375 1.15625 1.808594 1.53125zm0 0M19.285156 1.105469c0 .324219-.265625.585937-.585937.585937-.324219 0-.589844-.261718-.589844-.585937 0-.324219.265625-.585938.589844-.585938.320312 0 .585937.261719.585937.585938zm0 0"/>
</svg>
