<svg xmlns="http://www.w3.org/2000/svg" viewBox="0 0 30 30">
  <defs/>
  <path fill="#0277bd" d="M.625 13.75h8.75v15H.625zm0 0"/>
  <path fill="#01579b" d="M9.375 29.375H.625c-.34375 0-.625-.28125-.625-.625v-15c0-.34375.28125-.625.625-.625h8.75c.34375 0 .625.28125.625.625v15c0 .34375-.28125.625-.625.625zm-8.125-1.25h7.5v-13.75h-7.5zm0 0"/>
  <path fill="#eceff1" d="M9.375 26.25c1.089844.796875 2.398438 1.234375 3.75 1.25h11.5625c1.207031.003906 2.1875-.96875 2.191406-2.175781 0-.605469-.25-1.183594-.691406-1.597657 1.195312-.128906 2.054688-1.203124 1.925781-2.394531-.054687-.519531-.292969-1-.675781-1.355469 1.195312-.128906 2.058594-1.199218 1.929688-2.394531-.078126-.730469-.523438-1.375-1.179688-1.707031 1.171875-.730469 1.535156-2.269531.804688-3.445312-.453126-.730469-1.253907-1.175782-2.117188-1.179688h-8.75c.6875-1.804688 1.109375-3.699219 1.25-5.625 0-2.34375-2.03125-4.375-3.125-4.375-.675781.007812-1.328125.226562-1.875.625V6.25l-3.75 8.125-1.25.625zm0 0"/>
  <path fill="#01579b" d="M24.6875 28.125H13.125c-1.515625-.011719-2.988281-.515625-4.191406-1.433594C8.816406 26.574219 8.75 26.414062 8.75 26.25V15c0-.238281.132812-.453125.34375-.558594l1.054688-.527344L13.75 6.113281V1.875c0-.191406.085938-.371094.234375-.488281.65625-.484375 1.449219-.75 2.265625-.761719 1.445312 0 3.75 2.289062 3.75 5-.09375 1.707031-.429688 3.390625-1 5h7.875c1.726562 0 3.125 1.398438 3.125 3.125 0 .777344-.289062 1.523438-.8125 2.09375 1.085938 1.097656 1.082031 2.867188-.011719 3.953125-.210937.210937-.453125.382813-.71875.515625.195313.390625.292969.816406.292969 1.25 0 1.058594-.597656 2.027344-1.542969 2.5.195313.390625.292969.816406.292969 1.25-.003906 1.554688-1.261719 2.808594-2.8125 2.8125zM10 25.964844c.945312.566406 2.023438.878906 3.125.910156h11.5625c.863281 0 1.5625-.699219 1.5625-1.5625 0-.429688-.179688-.839844-.492188-1.132812-.253906-.234376-.265624-.628907-.027343-.882813.101562-.105469.234375-.175781.382812-.191406.851563-.089844 1.46875-.851563 1.378907-1.703125-.039063-.371094-.210938-.714844-.484376-.972656-.253906-.234376-.265624-.628907-.027343-.882813.101562-.105469.234375-.175781.382812-.191406.851563-.089844 1.46875-.851563 1.378907-1.703125-.054688-.527344-.375-.988282-.851563-1.222656-.304687-.160157-.425781-.535157-.265625-.84375.050781-.101563.128906-.183594.226562-.246094.878907-.546875 1.148438-1.703125.597657-2.582032-.335938-.542968-.933594-.878906-1.574219-.882812h-8.75c-.34375 0-.625-.28125-.625-.625 0-.078125.015625-.152344.042969-.222656.65625-1.734375 1.0625-3.554688 1.207031-5.402344 0-2.046875-1.816406-3.75-2.5-3.75-.4375.007812-.867188.125-1.25.339844V6.25c0 .089844-.019531.179688-.058594.261719l-3.75 8.125c-.058594.128906-.160156.234375-.285156.296875L10 15.386719zm0 0"/>
</svg>
