<svg xmlns="http://www.w3.org/2000/svg" viewBox="0 0 30 30">
  <defs/>
  <path fill="#fddf6d" d="M26.300781 15.625c0 7.117188-5.769531 12.886719-12.886719 12.886719-7.117187 0-12.890624-5.769531-12.890624-12.886719 0-7.121094 5.773437-12.890625 12.890624-12.890625 7.117188 0 12.886719 5.769531 12.886719 12.890625zm0 0"/>
  <path fill="#fcc56b" d="M16.175781 26.609375c-7.117187 0-12.890625-5.769531-12.890625-12.890625 0-3.800781 1.648438-7.21875 4.269532-9.578125C3.382812 6.273438.523438 10.613281.523438 15.625c0 7.117188 5.773437 12.886719 12.890624 12.886719 3.316407 0 6.335938-1.25 8.621094-3.308594-1.757812.898437-3.75 1.40625-5.859375 1.40625zm0 0"/>
  <path fill="#f9a880" d="M7.875 15.808594c-.957031 0-1.734375.777344-1.734375 1.734375h3.46875c0-.957031-.777344-1.734375-1.734375-1.734375zm0 0M22.992188 15.808594c-.957032 0-1.734376.777344-1.734376 1.734375h3.46875c0-.957031-.777343-1.734375-1.734374-1.734375zm0 0"/>
  <path fill="#fd4dd7" d="M11.402344 1.523438c-1.617188.238281-2.800782 1.464843-3.082032 2.941406-.027343.128906-.125.234375-.257812.261718-.128906.03125-.261719-.019531-.34375-.128906-.890625-1.207031-2.484375-1.804687-4.042969-1.324218-1.71875.53125-2.808593 2.277343-2.53125 4.058593C1.3125 8.421875 1.9375 9.3125 2.78125 9.855469l5.976562 4.136719c.894532.617187 2.128907.339843 2.667969-.605469l3.539063-6.1875c.589844-.882813.800781-2.015625.457031-3.132813-.527344-1.710937-2.25-2.800781-4.019531-2.542968zm0 0M27.304688 4.710938c-1.246094-.316407-2.476563.21875-3.128907 1.210937-.058593.085937-.164062.132813-.265625.113281-.105468-.015625-.1875-.09375-.210937-.195312-.285157-1.152344-1.265625-2.066406-2.542969-2.1875-1.414062-.132813-2.730469.808594-3.066406 2.1875-.207032.847656-.023438 1.683594.429687 2.332031l3.101563 4.816406c.460937.71875 1.445312.886719 2.121094.363281l4.441406-3.4375c.699218-.460937 1.191406-1.222656 1.28125-2.136718.132812-1.40625-.792969-2.71875-2.160156-3.066406zm0 0"/>
  <path fill="#e54190" d="M11.476562 12.640625L5.5 8.503906c-.847656-.542968-1.46875-1.433594-1.640625-2.523437-.160156-1.050781.148437-2.085938.785156-2.871094-.320312.011719-.644531.066406-.96875.164063-1.71875.53125-2.808593 2.277343-2.53125 4.058593C1.3125 8.421875 1.9375 9.3125 2.78125 9.855469l5.976562 4.136719c.894532.617187 2.128907.339843 2.667969-.605469l.335938-.585938c-.097657-.042969-.195313-.097656-.285157-.160156zm0 0M24.335938 11.636719l-3.101563-4.816407c-.449219-.648437-.636719-1.484374-.429687-2.332031.074218-.300781.195312-.582031.351562-.835937-1.414062-.132813-2.730469.808594-3.066406 2.1875-.207032.847656-.023438 1.683594.429687 2.332031l3.101563 4.816406c.460937.71875 1.445312.886719 2.121094.363281L25.167969 12.25c-.332031-.09375-.628907-.300781-.832031-.613281zm0 0"/>
  <path fill="#7f184c" d="M16.367188 24.347656c-2.878907 0-5.214844-2.335937-5.214844-5.21875h10.433594c0 2.882813-2.335938 5.21875-5.21875 5.21875zm0 0"/>
  <path fill="#f2f2f2" d="M12.425781 19.128906v.816406c0 .34375.277344.621094.621094.621094h6.644531c.34375 0 .621094-.277344.621094-.621094v-.816406zm0 0"/>
  <path fill="#fc4c59" d="M16.476562 22.183594c-1.410156-.65625-2.972656-.558594-4.242187.121094.953125 1.242187 2.453125 2.042968 4.140625 2.042968.742188 0 1.449219-.15625 2.089844-.4375-.46875-.726562-1.140625-1.335937-1.988282-1.726562zm0 0"/>
  <path d="M2.492188 10.292969l5.96875 4.128906c.398437.277344.875.421875 1.355468.421875.175782 0 .351563-.019531.523438-.058594.652344-.144531 1.210937-.5625 1.542968-1.140625l3.527344-6.171875c.699219-1.050781.886719-2.347656.511719-3.558594-.601563-1.953124-2.578125-3.203124-4.597656-2.90625-1.636719.238282-2.972657 1.414063-3.429688 2.976563C6.8125 2.769531 5.101562 2.285156 3.523438 2.773438 1.554688 3.382812.308594 5.375.625 7.410156c.183594 1.183594.863281 2.234375 1.867188 2.882813zm1.339843-6.519531c.308594-.09375.621094-.140626.933594-.140626.980469 0 1.929687.460938 2.53125 1.277344.203125.273438.550781.402344.882813.328125.332031-.074219.589843-.339843.652343-.675781.253907-1.3125 1.316407-2.324219 2.644531-2.519531 1.511719-.21875 2.992188.71875 3.445313 2.179687.28125.914063.136719 1.890625-.394531 2.683594-.007813.007812-.011719.019531-.019532.03125l-3.535156 6.1875c-.1875.328125-.496094.554688-.863281.636719-.367187.085937-.742187.011719-1.050781-.203125L3.082031 9.425781c-.007812-.003906-.011719-.007812-.015625-.011719C2.3125 8.929688 1.800781 8.140625 1.664062 7.25c-.238281-1.523438.695313-3.019531 2.167969-3.476562zm0 0"/>
  <path d="M27.433594 4.203125c-1.246094-.316406-2.546875.09375-3.386719 1.023437-.476563-1.15625-1.566406-1.976562-2.84375-2.09375-1.667969-.15625-3.226563.953126-3.625 2.585938-.230469.945312-.046875 1.945312.503906 2.746094l3.097657 4.804687c.300781.46875.785156.789063 1.332031.882813.113281.019531.222656.027344.335937.027344.4375 0 .867188-.144532 1.21875-.414063l1.367188-1.058594c.226562.949219.34375 1.929688.34375 2.917969 0 6.816406-5.546875 12.363281-12.363282 12.363281-6.820312 0-12.367187-5.546875-12.367187-12.363281 0-.488281.03125-.976562.085937-1.453125.035157-.289063-.171874-.550781-.460937-.582031-.285156-.035156-.546875.171875-.5820312.460937C.03125 14.566406 0 15.097656 0 15.625c0 7.394531 6.015625 13.410156 13.414062 13.410156 7.394532 0 13.414063-6.015625 13.414063-13.410156 0-1.230469-.167969-2.441406-.496094-3.613281l2.160157-1.671875c.851562-.574219 1.394531-1.488282 1.492187-2.515625.15625-1.65625-.9375-3.210938-2.550781-3.621094zm1.507812 3.523437c-.066406.714844-.449218 1.355469-1.046875 1.75-.011719.007813-.019531.015626-.03125.023438l-4.441406 3.4375c-.210937.160156-.46875.226562-.730469.179688-.261718-.042969-.488281-.191407-.632812-.414063l-3.097656-4.8125c-.003907-.007813-.007813-.011719-.011719-.015625-.390625-.5625-.515625-1.242188-.351563-1.910156.257813-1.058594 1.222656-1.800782 2.292969-1.800782.070313 0 .144531.003907.214844.011719 1.003906.09375 1.84375.8125 2.085937 1.789063.074219.304687.320313.535156.628906.585937.308594.054688.621094-.082031.792969-.34375.554688-.839843 1.582031-1.234375 2.5625-.988281 1.113281.285156 1.875 1.363281 1.765625 2.507812zm0 0"/>
  <path d="M10.628906 19.128906c0 3.167969 2.574219 5.742188 5.738282 5.742188 3.167968 0 5.742187-2.574219 5.742187-5.742188 0-.289062-.234375-.523437-.523437-.523437H11.152344c-.289063 0-.523438.234375-.523438.523437zm10.402344.527344c-.261719 2.339844-2.253906 4.167969-4.664062 4.167969-2.410157 0-4.402344-1.828125-4.664063-4.167969zm0 0M17.628906 3.257812c0 .289063-.238281.523438-.527344.523438-.289062 0-.523437-.234375-.523437-.523438 0-.289062.234375-.523437.523437-.523437.289063 0 .527344.234375.527344.523437zm0 0M1.484375 12.363281c0 .289063-.234375.523438-.523437.523438-.289063 0-.523438-.234375-.523438-.523438 0-.289062.234375-.523437.523438-.523437.289062 0 .523437.234375.523437.523437zm0 0"/>
</svg>
