<svg height="512" viewBox="0 0 512 512" width="512" xmlns="http://www.w3.org/2000/svg"><g id="solid"><path d="m290.978 324.7a96.41 96.41 0 0 1 -25.865 18.037 128.087 128.087 0 0 1 46.308 27.663c.63.586 1.249 1.181 1.865 1.779a116.465 116.465 0 0 1 16.636-7.783 84.077 84.077 0 0 1 -38.944-39.696z"/><path d="m306.277 387.872q-2.763-2.973-5.755-5.764a112.294 112.294 0 0 0 -183.879 49.283 224.662 224.662 0 0 0 219.987 33.722l-.63-8.823a111.948 111.948 0 0 0 -29.723-68.418z"/><circle cx="224" cy="256" r="80"/><path d="m367 357a68 68 0 0 0 0-136 67.366 67.366 0 0 0 -48.169 20.032 95.915 95.915 0 0 1 -16.187 69.958 67.67 67.67 0 0 0 64.356 46.01z"/><path d="m324.353 384.365a127.874 127.874 0 0 1 27.606 70.785l.234 3.268a224.21 224.21 0 0 0 62.2-44.026 227.75 227.75 0 0 0 18.1-20.41 100.938 100.938 0 0 0 -108.139-9.617z"/><path d="m414.392 97.608a224 224 0 0 0 -316.784 316.784c1.948 1.948 3.935 3.842 5.941 5.709a128.113 128.113 0 0 1 79.344-77.359 96 96 0 1 1 131.459-119.186 83.13 83.13 0 0 1 52.648-18.556 83.988 83.988 0 0 1 40.168 157.754 116.663 116.663 0 0 1 34.759 18.276 224.141 224.141 0 0 0 -27.535-283.422zm37.724 118.16a8 8 0 0 1 -9.681-5.854 192.954 192.954 0 0 0 -67.153-104.376 189.971 189.971 0 0 0 -119.282-41.538c-105.869 0-192 86.131-192 192a192.212 192.212 0 0 0 44.463 122.877 8 8 0 1 1 -12.289 10.246 208.24 208.24 0 0 1 -48.174-133.123c0-114.691 93.309-208 208-208a205.822 205.822 0 0 1 129.23 45.006 209.034 209.034 0 0 1 72.74 113.08 8 8 0 0 1 -5.854 9.682z"/></g></svg>