<svg id="Capa_1" enable-background="new 0 0 512 512" height="512" viewBox="0 0 512 512" width="512" xmlns="http://www.w3.org/2000/svg"><g><g><g><path d="m425.857 357.523v47.491c0 3.358-2.73 6.088-6.099 6.088h-196.167c-3.369 0-6.099-2.73-6.099-6.088v-47.491c0-43.7 35.428-79.128 79.139-79.128h50.088c13.866 0 26.898 3.564 38.23 9.838 24.394 13.475 40.908 39.456 40.908 69.29z" fill="#8f67ff"/><path d="m425.857 357.523v47.491c0 3.358-2.73 6.088-6.099 6.088h-94.581c49.397-35.119 59.349-87.823 59.771-122.87 24.395 13.476 40.909 39.457 40.909 69.291z" fill="#7a48ff"/><path d="m381.847 190.49c0 33.234-26.939 60.173-60.173 60.173-12.146 0-23.437-3.595-32.894-9.787-16.431-10.735-27.279-29.298-27.279-50.386 0-33.223 26.939-60.163 60.173-60.163 5.975 0 11.744.865 17.183 2.493 24.859 7.386 42.99 30.411 42.99 57.67z" fill="#8f67ff"/><path d="m381.847 190.49c0 33.234-26.939 60.173-60.173 60.173-12.146 0-23.437-3.595-32.894-9.787 48.449-28.021 52.745-77.624 50.077-108.056 24.859 7.386 42.99 30.411 42.99 57.67z" fill="#7a48ff"/></g><g><path d="m290.079 409.609v66.107c0 4.687-3.801 8.489-8.489 8.489h-273.101c-4.687 0-8.489-3.802-8.489-8.489v-66.107c0-60.843 49.325-110.168 110.168-110.168h69.743c17.389 0 33.841 4.028 48.46 11.219 36.551 17.915 61.708 55.496 61.708 98.949z" fill="#ff5677"/><path d="m290.079 409.609v66.107c0 4.687-3.801 8.489-8.489 8.489h-93.366c58.35-54.116 49.099-134.758 40.146-173.545 36.552 17.915 61.709 55.496 61.709 98.949z" fill="#ff2953"/><path d="m228.803 190.387c0 46.266-37.499 83.764-83.764 83.764-16.658 0-32.193-4.862-45.235-13.248-23.179-14.897-38.539-40.909-38.539-70.516 0-46.266 37.509-83.774 83.774-83.774 19.646 0 37.715 6.768 52.004 18.1 19.347 15.339 31.76 39.064 31.76 65.674z" fill="#ff5677"/><path d="m228.803 190.387c0 46.266-37.499 83.764-83.764 83.764-16.658 0-32.193-4.862-45.235-13.248 75.038-39.322 93.644-98.382 97.239-136.19 19.347 15.339 31.76 39.064 31.76 65.674z" fill="#ff2953"/></g></g><g><path d="m512 48.867v126.252c0 11.642-9.43 21.072-21.072 21.072h-126.252c-11.642 0-21.072-9.43-21.072-21.072v-126.252c0-11.642 9.43-21.072 21.072-21.072h126.252c11.642 0 21.072 9.43 21.072 21.072z" fill="#ff5677"/><path d="m512 48.867v126.252c0 11.642-9.43 21.072-21.072 21.072h-101.239c95.241-32.507 88.985-128.328 85.53-168.396h15.709c11.642 0 21.072 9.43 21.072 21.072z" fill="#ff2953"/><path d="m447.389 102.495c3.323-4.177 5.316-9.457 5.316-15.197 0-13.486-10.971-24.457-24.456-24.457-13.486 0-24.457 10.971-24.457 24.457 0 5.786 2.024 11.106 5.396 15.299-8.028 5.907-13.25 15.416-13.25 26.125 0 17.877 14.544 32.422 32.422 32.422s32.422-14.544 32.422-32.422c0-10.772-5.285-20.328-13.393-26.227zm-19.139-24.201c4.964 0 9.003 4.039 9.003 9.004 0 4.964-4.039 9.003-9.003 9.003-4.965 0-9.004-4.039-9.004-9.003 0-4.965 4.039-9.004 9.004-9.004zm.111 67.397c-9.357 0-16.969-7.612-16.969-16.969s7.612-16.969 16.969-16.969 16.969 7.612 16.969 16.969-7.612 16.969-16.969 16.969z" fill="#e8e6ed"/></g></g></svg>